<svg xmlns="http://www.w3.org/2000/svg" viewBox="0 0 128 128"><defs><radialGradient id="drop-lit-h" cx="50%" cy="96%" r="70%"><stop offset="0%" stop-color="#ffcf4a"></stop><stop offset="30%" stop-color="#e3edfc"></stop><stop offset="62%" stop-color="#a8c5f4"></stop><stop offset="100%" stop-color="#5c8fe5"></stop></radialGradient><radialGradient id="drop-lit-a" cx="50%" cy="50%" r="50%"><stop offset="55%" stop-color="#ffcf4a" stop-opacity="0.3"></stop><stop offset="100%" stop-color="#ffcf4a" stop-opacity="0"></stop></radialGradient></defs><path d="M28 0H100Q128 0 128 28V100Q128 128 100 128H28Q0 128 0 100V28Q0 0 28 0Z" fill="#0b4399"></path><circle cx="64" cy="80" r="58" fill="url(#drop-lit-a)"></circle><g><g><path d="M61 48 C58 34 42 26.8 40 18" stroke="#a8c5f4" stroke-width="4" stroke-linecap="round" fill="none"></path><circle cx="40" cy="18" r="10" fill="#ffcf4a" opacity="0.35"></circle><circle cx="40" cy="18" r="5" fill="#ffcf4a"></circle></g><g><path d="M67 48 C70 34 86 26.8 88 18" stroke="#a8c5f4" stroke-width="4" stroke-linecap="round" fill="none"></path><circle cx="88" cy="18" r="10" fill="#ffcf4a" opacity="0.35"></circle><circle cx="88" cy="18" r="5" fill="#ffcf4a"></circle></g></g><path d="M64 30 C72.68 45.48 104 54.08 104 83.32 C104 103.96 86.6 116 64 116 C41.4 116 24 103.96 24 83.32 C24 54.08 55.32 45.48 64 30 Z" fill="url(#drop-lit-h)"></path><g><g><ellipse cx="50" cy="86" rx="5.4" ry="7.4" fill="#241a3a"></ellipse><circle cx="51.62" cy="83.04" r="1.944" fill="#fff"></circle></g><g><ellipse cx="78" cy="86" rx="5.4" ry="7.4" fill="#241a3a"></ellipse><circle cx="79.62" cy="83.04" r="1.944" fill="#fff"></circle></g></g><path d="M59 100 Q64 105.5 69 100" stroke="#241a3a" stroke-width="3" stroke-linecap="round" fill="none"></path></svg>
