<svg xmlns="http://www.w3.org/2000/svg" viewBox="0 0 128 128"><path d="M28 0H100Q128 0 128 28V100Q128 128 100 128H28Q0 128 0 100V28Q0 0 28 0Z" fill="#e3edfc"></path><g><path d="M61 48 C58 34 44 27 42 18" stroke="#1460d6" stroke-width="7" stroke-linecap="round" fill="none"></path><path d="M67 48 C70 26 86 12 92 22 C95 27 95 29 94 32" stroke="#1460d6" stroke-width="7" stroke-linecap="round" fill="none"></path><g><circle cx="42" cy="18" r="10" fill="#ffcf4a"></circle></g><g><circle cx="94" cy="32" r="10" fill="#ffcf4a"></circle></g></g><path d="M64 28 C73.98 44.56 110 53.76 110 85.04 C110 107.12 89.99 120 64 120 C38.01 120 18 107.12 18 85.04 C18 53.76 54.02 44.56 64 28 Z" fill="#5c8fe5"></path><g><g><ellipse cx="47" cy="86" rx="8" ry="11" fill="#241a3a"></ellipse></g><g><ellipse cx="81" cy="86" rx="8" ry="11" fill="#241a3a"></ellipse></g></g></svg>
