<svg xmlns="http://www.w3.org/2000/svg" viewBox="0 0 128 128"><defs><radialGradient id="figure-h" cx="50%" cy="64%" r="62%"><stop offset="0%" stop-color="#e3edfc"></stop><stop offset="40%" stop-color="#a8c5f4"></stop><stop offset="78%" stop-color="#5c8fe5"></stop><stop offset="100%" stop-color="#1460d6"></stop></radialGradient><radialGradient id="figure-g" cx="50%" cy="50%" r="50%"><stop offset="0%" stop-color="#ffcf4a" stop-opacity="0.55"></stop><stop offset="100%" stop-color="#ffcf4a" stop-opacity="0"></stop></radialGradient></defs><path d="M28 0H100Q128 0 128 28V100Q128 128 100 128H28Q0 128 0 100V28Q0 0 28 0Z" fill="#1460d6"></path><circle cx="64" cy="98" r="30" fill="url(#figure-g)"></circle><path d="M58 74 C46 56 24 52 18 62 C12 72 30 86 56 84 Z" fill="#e3edfc" fill-opacity="0.55"></path><path d="M70 74 C82 56 104 52 110 62 C116 72 98 86 72 84 Z" fill="#e3edfc" fill-opacity="0.55"></path><path d="M54 80 C54 74 74 74 74 80 C82 94 80 108 66 116 C62 119 63 123 69 124 C58 125 55 118 58 113 C48 106 46 92 54 80 Z" fill="#ffcf4a"></path><path d="M53 96 Q64 101 76 95 M56 106 Q64 110 72 105" stroke="#e3a41b" stroke-width="2.4" stroke-linecap="round" fill="none"></path><g><g><path d="M61 34 C58 20 52 15.5 50 10" stroke="#e3edfc" stroke-width="3" stroke-linecap="round" fill="none"></path><circle cx="50" cy="10" r="3.6" fill="#ffcf4a"></circle></g><g><path d="M67 34 C70 20 76 15.5 78 10" stroke="#e3edfc" stroke-width="3" stroke-linecap="round" fill="none"></path><circle cx="78" cy="10" r="3.6" fill="#ffcf4a"></circle></g></g><path d="M64 16 C69.42 26.8 89 32.8 89 53.2 C89 67.6 78.13 76 64 76 C49.88 76 39 67.6 39 53.2 C39 32.8 58.58 26.8 64 16 Z" fill="url(#figure-h)"></path><g><g><ellipse cx="55" cy="56" rx="3.6" ry="5" fill="#241a3a"></ellipse><circle cx="56.08" cy="54" r="1.296" fill="#fff"></circle></g><g><ellipse cx="73" cy="56" rx="3.6" ry="5" fill="#241a3a"></ellipse><circle cx="74.08" cy="54" r="1.296" fill="#fff"></circle></g></g><path d="M60.5 66 Q64 69.85 67.5 66" stroke="#241a3a" stroke-width="3" stroke-linecap="round" fill="none"></path></svg>
