<svg xmlns="http://www.w3.org/2000/svg" viewBox="0 0 128 128"><defs><radialGradient id="flight-h" cx="50%" cy="64%" r="62%"><stop offset="0%" stop-color="#e3edfc"></stop><stop offset="40%" stop-color="#a8c5f4"></stop><stop offset="78%" stop-color="#5c8fe5"></stop><stop offset="100%" stop-color="#1460d6"></stop></radialGradient><linearGradient id="flight-f" gradientUnits="userSpaceOnUse" x1="62" y1="70" x2="56" y2="126"><stop offset="0" stop-color="#5c8fe5"></stop><stop offset="0.2" stop-color="#ffcf4a"></stop><stop offset="1" stop-color="#e3a41b"></stop></linearGradient></defs><path d="M28 0H100Q128 0 128 28V100Q128 128 100 128H28Q0 128 0 100V28Q0 0 28 0Z" fill="#01102f"></path><path d="M22 94.5 Q23.54 98.46 27.5 100 Q23.54 101.54 22 105.5 Q20.46 101.54 16.5 100 Q20.46 98.46 22 94.5 Z" fill="#ffcf4a" opacity="0.75"></path><path d="M12 80.6 Q12.952 83.048 15.4 84 Q12.952 84.952 12 87.4 Q11.048 84.952 8.6 84 Q11.048 83.048 12 80.6 Z" fill="#ffcf4a" opacity="0.5"></path><path d="M30 113.2 Q30.784 115.216 32.8 116 Q30.784 116.784 30 118.8 Q29.216 116.784 27.2 116 Q29.216 115.216 30 113.2 Z" fill="#ffcf4a" opacity="0.4"></path><g transform="rotate(34 64 74) translate(6 0)"><path d="M58 80 C46 62 26 54 18 62 C12 70 24 84 54 86 Z" fill="#e3edfc" fill-opacity="0.6"></path><g transform="translate(62 72) scale(0.82) translate(-62 -72)"><path d="M52 74 C52 68 74 68 74 76 C78 94 70 108 58 116 C53 119 53 124 59 126 C46 127 41 118 45 111 C38 100 42 86 52 74 Z" fill="url(#flight-f)"></path><path d="M50 98 Q61 103 72 98" stroke="#e3a41b" stroke-width="2.6" stroke-linecap="round" fill="none"></path></g><path d="M62 24 C58 14 50 8 42 8" stroke="#82aaed" stroke-width="3.2" stroke-linecap="round" fill="none"></path><circle cx="42" cy="8" r="8" fill="#ffcf4a" opacity="0.35"></circle><circle cx="42" cy="8" r="4" fill="#ffcf4a"></circle><path d="M64 14 C70.51 25.88 94 32.48 94 54.92 C94 70.76 80.95 80 64 80 C47.05 80 34 70.76 34 54.92 C34 32.48 57.49 25.88 64 14 Z" fill="url(#flight-h)"></path></g><ellipse cx="82" cy="62" rx="4.8" ry="6.6" fill="#241a3a"></ellipse><circle cx="83.6" cy="59.6" r="1.7" fill="#fff"></circle><path d="M80 75 Q86 79 91 73" stroke="#241a3a" stroke-width="2.8" stroke-linecap="round" fill="none"></path></svg>
