<svg xmlns="http://www.w3.org/2000/svg" viewBox="0 0 128 128"><path d="M28 0H100Q128 0 128 28V100Q128 128 100 128H28Q0 128 0 100V28Q0 0 28 0Z" fill="#01102f"></path><circle cx="64" cy="66" r="58" fill="#ffcf4a"></circle><g><g><path d="M61 46 C58 32 42 25.700000000000003 40 18" stroke="#1460d6" stroke-width="8" stroke-linecap="round" fill="none"></path><circle cx="40" cy="18" r="9" fill="#1460d6"></circle></g><g><path d="M67 46 C70 32 86 25.700000000000003 88 18" stroke="#1460d6" stroke-width="8" stroke-linecap="round" fill="none"></path><circle cx="88" cy="18" r="9" fill="#1460d6"></circle></g></g><path d="M64 28 C72.68 43.12 104 51.52 104 80.08 C104 100.24 86.6 112 64 112 C41.4 112 24 100.24 24 80.08 C24 51.52 55.32 43.12 64 28 Z" fill="#1460d6"></path><g><g><ellipse cx="49" cy="80" rx="7.5" ry="10.5" fill="#e3edfc"></ellipse></g><g><ellipse cx="79" cy="80" rx="7.5" ry="10.5" fill="#e3edfc"></ellipse></g></g></svg>
